<svg width="97" height="27" viewBox="0 0 97 27" fill="none" xmlns="http://www.w3.org/2000/svg">
<path d="M0.116 26L10.34 1.016H12.788L22.976 26H19.304L10.916 4.868H12.176L3.716 26H0.116ZM4.976 20.348V17.396H18.116V20.348H4.976ZM27.5235 26V1.736H30.7635V26H27.5235ZM23.3115 11.852V8.9H34.9755V11.852H23.3115ZM50.2454 26V16.028C50.2454 14.732 49.8374 13.664 49.0214 12.824C48.2054 11.984 47.1494 11.564 45.8534 11.564C44.9894 11.564 44.2214 11.756 43.5494 12.14C42.8774 12.524 42.3494 13.052 41.9654 13.724C41.5814 14.396 41.3894 15.164 41.3894 16.028L40.0574 15.272C40.0574 13.976 40.3454 12.824 40.9214 11.816C41.4974 10.808 42.3014 10.016 43.3334 9.44C44.3654 8.84 45.5294 8.54 46.8254 8.54C48.1214 8.54 49.2614 8.828 50.2454 9.404C51.2534 9.98 52.0454 10.784 52.6214 11.816C53.1974 12.848 53.4854 14.036 53.4854 15.38V26H50.2454ZM38.1494 26V0.295998H41.3894V26H38.1494ZM57.9081 26V8.9H61.1481V26H57.9081ZM59.5281 5.48C58.9281 5.48 58.4361 5.288 58.0521 4.904C57.6681 4.496 57.4761 3.992 57.4761 3.392C57.4761 2.816 57.6681 2.336 58.0521 1.952C58.4361 1.544 58.9281 1.34 59.5281 1.34C60.1281 1.34 60.6201 1.544 61.0041 1.952C61.3881 2.336 61.5801 2.816 61.5801 3.392C61.5801 3.992 61.3881 4.496 61.0041 4.904C60.6201 5.288 60.1281 5.48 59.5281 5.48ZM65.9229 26V8.9H69.1629V26H65.9229ZM69.1629 16.244L67.9389 15.704C67.9389 13.52 68.4429 11.78 69.4509 10.484C70.4589 9.188 71.9109 8.54 73.8069 8.54C74.6709 8.54 75.4509 8.696 76.1469 9.008C76.8429 9.296 77.4909 9.788 78.0909 10.484L75.9669 12.68C75.6069 12.296 75.2109 12.02 74.7789 11.852C74.3469 11.684 73.8429 11.6 73.2669 11.6C72.0669 11.6 71.0829 11.984 70.3149 12.752C69.5469 13.52 69.1629 14.684 69.1629 16.244ZM87.0816 26.36C85.5216 26.36 84.1056 25.976 82.8336 25.208C81.5616 24.416 80.5536 23.348 79.8096 22.004C79.0896 20.66 78.7296 19.148 78.7296 17.468C78.7296 15.788 79.0896 14.276 79.8096 12.932C80.5536 11.588 81.5496 10.52 82.7976 9.728C84.0696 8.936 85.4976 8.54 87.0816 8.54C88.3776 8.54 89.5296 8.816 90.5376 9.368C91.5696 9.896 92.3976 10.64 93.0216 11.6C93.6456 12.536 93.9936 13.628 94.0656 14.876V20.024C93.9936 21.248 93.6456 22.34 93.0216 23.3C92.4216 24.26 91.6056 25.016 90.5736 25.568C89.5656 26.096 88.4016 26.36 87.0816 26.36ZM87.6216 23.3C89.2296 23.3 90.5256 22.76 91.5096 21.68C92.4936 20.576 92.9856 19.172 92.9856 17.468C92.9856 16.292 92.7576 15.272 92.3016 14.408C91.8696 13.52 91.2456 12.836 90.4296 12.356C89.6136 11.852 88.6656 11.6 87.5856 11.6C86.5056 11.6 85.5456 11.852 84.7056 12.356C83.8896 12.86 83.2416 13.556 82.7616 14.444C82.3056 15.308 82.0776 16.304 82.0776 17.432C82.0776 18.584 82.3056 19.604 82.7616 20.492C83.2416 21.356 83.9016 22.04 84.7416 22.544C85.5816 23.048 86.5416 23.3 87.6216 23.3ZM92.7696 26V21.392L93.3816 17.216L92.7696 13.076V8.9H96.0456V26H92.7696Z" fill="white"/>
</svg>
